<svg width="92" height="28" viewBox="0 0 92 28" fill="none" xmlns="http://www.w3.org/2000/svg">
<path d="M0.9 10V2.176H3.672C4.24 2.176 4.752 2.256 5.208 2.416C5.672 2.568 6.04 2.828 6.312 3.196C6.592 3.564 6.732 4.064 6.732 4.696C6.732 5.304 6.592 5.804 6.312 6.196C6.032 6.588 5.66 6.88 5.196 7.072C4.732 7.256 4.224 7.348 3.672 7.348H2.664V10H0.9ZM2.664 5.944H3.564C4.052 5.944 4.412 5.836 4.644 5.62C4.884 5.404 5.004 5.096 5.004 4.696C5.004 4.28 4.88 3.992 4.632 3.832C4.392 3.664 4.036 3.58 3.564 3.58H2.664V5.944ZM8.58731 10V4.048H10.0273L10.1713 5.344H10.2073C10.5033 4.856 10.8593 4.496 11.2753 4.264C11.6993 4.024 12.1473 3.904 12.6193 3.904C12.8833 3.904 13.0953 3.924 13.2553 3.964C13.4233 4.004 13.5953 4.064 13.7713 4.144L13.4113 5.62C13.2273 5.564 13.0593 5.524 12.9073 5.5C12.7633 5.468 12.5793 5.452 12.3553 5.452C11.9873 5.452 11.6233 5.56 11.2633 5.776C10.9113 5.992 10.6073 6.368 10.3513 6.904V10H8.58731ZM17.9906 10.144C17.4706 10.144 16.9786 10.024 16.5146 9.784C16.0506 9.536 15.6746 9.18 15.3866 8.716C15.0986 8.244 14.9546 7.68 14.9546 7.024C14.9546 6.368 15.0986 5.808 15.3866 5.344C15.6746 4.872 16.0506 4.516 16.5146 4.276C16.9786 4.028 17.4706 3.904 17.9906 3.904C18.5106 3.904 19.0026 4.028 19.4666 4.276C19.9306 4.516 20.3066 4.872 20.5946 5.344C20.8826 5.808 21.0266 6.368 21.0266 7.024C21.0266 7.68 20.8826 8.244 20.5946 8.716C20.3066 9.18 19.9306 9.536 19.4666 9.784C19.0026 10.024 18.5106 10.144 17.9906 10.144ZM17.9906 8.716C18.2626 8.716 18.4866 8.648 18.6626 8.512C18.8466 8.376 18.9826 8.18 19.0706 7.924C19.1666 7.668 19.2146 7.368 19.2146 7.024C19.2146 6.68 19.1666 6.38 19.0706 6.124C18.9826 5.868 18.8466 5.672 18.6626 5.536C18.4866 5.4 18.2626 5.332 17.9906 5.332C17.7186 5.332 17.4906 5.4 17.3066 5.536C17.1306 5.672 16.9946 5.868 16.8986 6.124C16.8106 6.38 16.7666 6.68 16.7666 7.024C16.7666 7.368 16.8106 7.668 16.8986 7.924C16.9946 8.18 17.1306 8.376 17.3066 8.512C17.4906 8.648 17.7186 8.716 17.9906 8.716ZM23.9259 12.352C23.5579 12.352 23.2219 12.312 22.9179 12.232C22.6219 12.16 22.3459 12.064 22.0899 11.944L22.6059 10.684C22.8459 10.788 23.0619 10.86 23.2539 10.9C23.4539 10.948 23.6419 10.972 23.8179 10.972C24.1059 10.972 24.3299 10.924 24.4899 10.828C24.6499 10.74 24.7619 10.604 24.8259 10.42C24.8899 10.236 24.9219 10 24.9219 9.712V5.428H22.5219V4.048H26.6859V9.64C26.6859 10.008 26.6419 10.352 26.5539 10.672C26.4659 11 26.3179 11.288 26.1099 11.536C25.9019 11.792 25.6179 11.992 25.2579 12.136C24.9059 12.28 24.4619 12.352 23.9259 12.352ZM25.7259 3.112C25.3899 3.112 25.1099 3.016 24.8859 2.824C24.6619 2.624 24.5499 2.364 24.5499 2.044C24.5499 1.716 24.6619 1.452 24.8859 1.252C25.1099 1.044 25.3899 0.939999 25.7259 0.939999C26.0699 0.939999 26.3499 1.044 26.5659 1.252C26.7899 1.452 26.9019 1.716 26.9019 2.044C26.9019 2.364 26.7899 2.624 26.5659 2.824C26.3499 3.016 26.0699 3.112 25.7259 3.112ZM32.7413 10.144C32.1253 10.144 31.5653 10.024 31.0613 9.784C30.5653 9.536 30.1693 9.18 29.8733 8.716C29.5853 8.244 29.4413 7.68 29.4413 7.024C29.4413 6.376 29.5893 5.82 29.8853 5.356C30.1813 4.884 30.5653 4.524 31.0373 4.276C31.5093 4.028 32.0093 3.904 32.5373 3.904C33.1533 3.904 33.6693 4.032 34.0853 4.288C34.5013 4.536 34.8133 4.876 35.0213 5.308C35.2373 5.732 35.3453 6.216 35.3453 6.76C35.3453 6.92 35.3333 7.076 35.3093 7.228C35.2933 7.372 35.2773 7.48 35.2613 7.552H30.7493V6.364H34.0733L33.7973 6.7C33.7973 6.22 33.6933 5.86 33.4853 5.62C33.2853 5.372 32.9893 5.248 32.5973 5.248C32.3093 5.248 32.0573 5.312 31.8413 5.44C31.6253 5.568 31.4573 5.764 31.3373 6.028C31.2173 6.292 31.1573 6.624 31.1573 7.024C31.1573 7.432 31.2293 7.768 31.3733 8.032C31.5173 8.288 31.7253 8.48 31.9973 8.608C32.2693 8.736 32.5973 8.8 32.9813 8.8C33.2533 8.8 33.5093 8.764 33.7493 8.692C33.9973 8.62 34.2533 8.516 34.5173 8.38L35.1053 9.448C34.7613 9.664 34.3813 9.836 33.9653 9.964C33.5493 10.084 33.1413 10.144 32.7413 10.144ZM40.0926 10.144C39.4686 10.144 38.9046 10.024 38.4006 9.784C37.9046 9.536 37.5086 9.18 37.2126 8.716C36.9246 8.244 36.7806 7.68 36.7806 7.024C36.7806 6.368 36.9406 5.808 37.2606 5.344C37.5806 4.872 38.0006 4.516 38.5206 4.276C39.0486 4.028 39.6166 3.904 40.2246 3.904C40.6966 3.904 41.1246 3.98 41.5086 4.132C41.8926 4.276 42.2086 4.468 42.4566 4.708L41.6406 5.8C41.4086 5.64 41.1846 5.524 40.9686 5.452C40.7606 5.372 40.5446 5.332 40.3206 5.332C39.9846 5.332 39.6846 5.4 39.4206 5.536C39.1566 5.672 38.9526 5.868 38.8086 6.124C38.6646 6.38 38.5926 6.68 38.5926 7.024C38.5926 7.368 38.6606 7.668 38.7966 7.924C38.9406 8.18 39.1366 8.376 39.3846 8.512C39.6406 8.648 39.9326 8.716 40.2606 8.716C40.5726 8.716 40.8566 8.66 41.1126 8.548C41.3766 8.436 41.6166 8.304 41.8326 8.152L42.5406 9.268C42.1886 9.564 41.7926 9.784 41.3526 9.928C40.9206 10.072 40.5006 10.144 40.0926 10.144ZM47.8279 10.144C47.1959 10.144 46.6919 10.036 46.3159 9.82C45.9479 9.596 45.6799 9.288 45.5119 8.896C45.3439 8.504 45.2599 8.048 45.2599 7.528V5.428H43.7719V4.12L45.3439 4.048L45.5719 2.224H47.0239V4.048H49.5439V5.428H47.0239V7.516C47.0239 7.812 47.0679 8.052 47.1559 8.236C47.2439 8.42 47.3799 8.556 47.5639 8.644C47.7479 8.724 47.9839 8.764 48.2719 8.764C48.5039 8.764 48.7159 8.744 48.9079 8.704C49.0999 8.664 49.2839 8.612 49.4599 8.548L49.7719 9.82C49.5079 9.9 49.2159 9.972 48.8959 10.036C48.5839 10.108 48.2279 10.144 47.8279 10.144ZM58.3545 10V2.176H60.1665L61.8105 6.064L62.4825 7.792H62.5305C62.4905 7.376 62.4385 6.912 62.3745 6.4C62.3105 5.888 62.2785 5.404 62.2785 4.948V2.176H63.9705V10H62.1585L60.5145 6.1L59.8425 4.396H59.7945C59.8345 4.82 59.8865 5.284 59.9505 5.788C60.0145 6.284 60.0465 6.764 60.0465 7.228V10H58.3545ZM67.4458 10.144C67.0458 10.144 66.6978 10.064 66.4018 9.904C66.1138 9.744 65.8898 9.528 65.7298 9.256C65.5698 8.984 65.4898 8.68 65.4898 8.344C65.4898 7.68 65.7898 7.172 66.3898 6.82C66.9978 6.468 68.0058 6.252 69.4138 6.172C69.3898 5.988 69.3298 5.832 69.2338 5.704C69.1378 5.576 68.9978 5.48 68.8138 5.416C68.6378 5.344 68.4138 5.308 68.1418 5.308C67.9498 5.308 67.7578 5.332 67.5658 5.38C67.3738 5.42 67.1738 5.484 66.9658 5.572C66.7658 5.652 66.5538 5.748 66.3298 5.86L65.7058 4.708C65.9778 4.548 66.2618 4.408 66.5578 4.288C66.8618 4.168 67.1738 4.076 67.4938 4.012C67.8218 3.94 68.1538 3.904 68.4898 3.904C69.0498 3.904 69.5298 4.004 69.9298 4.204C70.3298 4.396 70.6378 4.692 70.8538 5.092C71.0698 5.484 71.1778 5.984 71.1778 6.592V10H69.7378L69.6058 9.328H69.5578C69.2618 9.552 68.9338 9.744 68.5738 9.904C68.2138 10.064 67.8378 10.144 67.4458 10.144ZM68.0098 8.776C68.2738 8.776 68.5218 8.724 68.7538 8.62C68.9858 8.508 69.2058 8.372 69.4138 8.212V7.228C68.8298 7.26 68.3738 7.32 68.0458 7.408C67.7258 7.496 67.5018 7.608 67.3738 7.744C67.2458 7.88 67.1818 8.036 67.1818 8.212C67.1818 8.332 67.2138 8.436 67.2778 8.524C67.3498 8.612 67.4458 8.676 67.5658 8.716C67.6938 8.756 67.8418 8.776 68.0098 8.776ZM72.3731 10V4.048H73.7051L73.8251 4.78H73.8731C73.9851 4.54 74.1411 4.336 74.3411 4.168C74.5411 3.992 74.8131 3.904 75.1571 3.904C75.4131 3.904 75.6331 3.988 75.8171 4.156C76.0011 4.316 76.1251 4.556 76.1891 4.876C76.3011 4.604 76.4611 4.376 76.6691 4.192C76.8851 4 77.1651 3.904 77.5091 3.904C77.9331 3.904 78.2611 4.076 78.4931 4.42C78.7251 4.764 78.8411 5.232 78.8411 5.824V10H77.1611V5.944C77.1611 5.584 77.0531 5.404 76.8371 5.404C76.7251 5.404 76.6251 5.452 76.5371 5.548C76.4571 5.636 76.3771 5.78 76.2971 5.98V10H74.9171V5.944C74.9171 5.76 74.8891 5.624 74.8331 5.536C74.7771 5.448 74.6931 5.404 74.5811 5.404C74.4691 5.404 74.3731 5.452 74.2931 5.548C74.2131 5.636 74.1331 5.78 74.0531 5.98V10H72.3731ZM83.1084 10.144C82.4924 10.144 81.9324 10.024 81.4284 9.784C80.9324 9.536 80.5364 9.18 80.2404 8.716C79.9524 8.244 79.8084 7.68 79.8084 7.024C79.8084 6.376 79.9564 5.82 80.2524 5.356C80.5484 4.884 80.9324 4.524 81.4044 4.276C81.8764 4.028 82.3764 3.904 82.9044 3.904C83.5204 3.904 84.0364 4.032 84.4524 4.288C84.8684 4.536 85.1804 4.876 85.3884 5.308C85.6044 5.732 85.7124 6.216 85.7124 6.76C85.7124 6.92 85.7004 7.076 85.6764 7.228C85.6604 7.372 85.6444 7.48 85.6284 7.552H81.1164V6.364H84.4404L84.1644 6.7C84.1644 6.22 84.0604 5.86 83.8524 5.62C83.6524 5.372 83.3564 5.248 82.9644 5.248C82.6764 5.248 82.4244 5.312 82.2084 5.44C81.9924 5.568 81.8244 5.764 81.7044 6.028C81.5844 6.292 81.5244 6.624 81.5244 7.024C81.5244 7.432 81.5964 7.768 81.7404 8.032C81.8844 8.288 82.0924 8.48 82.3644 8.608C82.6364 8.736 82.9644 8.8 83.3484 8.8C83.6204 8.8 83.8764 8.764 84.1164 8.692C84.3644 8.62 84.6204 8.516 84.8844 8.38L85.4724 9.448C85.1284 9.664 84.7484 9.836 84.3324 9.964C83.9164 10.084 83.5084 10.144 83.1084 10.144ZM89.9438 6.268C89.5358 6.268 89.1998 6.132 88.9358 5.86C88.6798 5.588 88.5518 5.256 88.5518 4.864C88.5518 4.472 88.6798 4.14 88.9358 3.868C89.1998 3.588 89.5358 3.448 89.9438 3.448C90.3598 3.448 90.6958 3.588 90.9518 3.868C91.2078 4.14 91.3358 4.472 91.3358 4.864C91.3358 5.256 91.2078 5.588 90.9518 5.86C90.6958 6.132 90.3598 6.268 89.9438 6.268ZM89.9438 10.144C89.5358 10.144 89.1998 10.008 88.9358 9.736C88.6798 9.464 88.5518 9.132 88.5518 8.74C88.5518 8.348 88.6798 8.016 88.9358 7.744C89.1998 7.464 89.5358 7.324 89.9438 7.324C90.3598 7.324 90.6958 7.464 90.9518 7.744C91.2078 8.016 91.3358 8.348 91.3358 8.74C91.3358 9.132 91.2078 9.464 90.9518 9.736C90.6958 10.008 90.3598 10.144 89.9438 10.144ZM1.608 27.46C1.464 27.46 1.32 27.448 1.176 27.424C1.032 27.4 0.908 27.372 0.804 27.34L1.044 26.416C1.116 26.44 1.196 26.46 1.284 26.476C1.372 26.492 1.46 26.5 1.548 26.5C1.94 26.5 2.256 26.392 2.496 26.176C2.736 25.96 2.924 25.692 3.06 25.372L3.216 24.964L0.54 19.132H1.728L3.048 22.192C3.152 22.456 3.26 22.736 3.372 23.032C3.492 23.32 3.612 23.612 3.732 23.908H3.78C3.876 23.628 3.976 23.34 4.08 23.044C4.184 22.74 4.284 22.456 4.38 22.192L5.544 19.132H6.672L4.164 25.372C4.012 25.788 3.824 26.152 3.6 26.464C3.376 26.776 3.1 27.02 2.772 27.196C2.452 27.372 2.064 27.46 1.608 27.46ZM10.0753 25.144C9.38731 25.144 8.87931 24.94 8.55131 24.532C8.23131 24.124 8.07131 23.536 8.07131 22.768V19.132H9.25931V22.612C9.25931 23.132 9.35131 23.516 9.53531 23.764C9.72731 24.004 10.0433 24.124 10.4833 24.124C10.7953 24.124 11.0753 24.048 11.3233 23.896C11.5713 23.744 11.8393 23.496 12.1273 23.152V19.132H13.3153V25H12.3433L12.2473 24.028H12.1993C11.9113 24.356 11.5953 24.624 11.2513 24.832C10.9153 25.04 10.5233 25.144 10.0753 25.144ZM15.2906 25V17.14H16.5026V20.368H19.4786V17.14H20.6906V25H19.4786V21.412H16.5026V25H15.2906ZM24.4779 25.144C24.1019 25.144 23.7619 25.076 23.4579 24.94C23.1619 24.796 22.9259 24.6 22.7499 24.352C22.5819 24.096 22.4979 23.796 22.4979 23.452C22.4979 22.796 22.8179 22.296 23.4579 21.952C24.1059 21.608 25.1659 21.38 26.6379 21.268C26.6299 21.028 26.5739 20.808 26.4699 20.608C26.3739 20.408 26.2179 20.252 26.0019 20.14C25.7939 20.02 25.5179 19.96 25.1739 19.96C24.9339 19.96 24.6979 19.992 24.4659 20.056C24.2339 20.112 24.0099 20.192 23.7939 20.296C23.5779 20.4 23.3739 20.508 23.1819 20.62L22.7379 19.816C22.9539 19.688 23.2019 19.56 23.4819 19.432C23.7619 19.296 24.0619 19.188 24.3819 19.108C24.7099 19.028 25.0419 18.988 25.3779 18.988C25.9219 18.988 26.3739 19.088 26.7339 19.288C27.0939 19.488 27.3659 19.772 27.5499 20.14C27.7339 20.508 27.8259 20.952 27.8259 21.472V25H26.8539L26.7579 24.244H26.7219C26.4099 24.484 26.0579 24.696 25.6659 24.88C25.2739 25.056 24.8779 25.144 24.4779 25.144ZM24.8139 24.196C25.1259 24.196 25.4339 24.128 25.7379 23.992C26.0419 23.856 26.3419 23.664 26.6379 23.416V22.024C25.8699 22.08 25.2659 22.168 24.8259 22.288C24.3939 22.408 24.0899 22.56 23.9139 22.744C23.7379 22.92 23.6499 23.128 23.6499 23.368C23.6499 23.56 23.7019 23.72 23.8059 23.848C23.9179 23.968 24.0619 24.056 24.2379 24.112C24.4139 24.168 24.6059 24.196 24.8139 24.196ZM32.9213 25.144C32.3133 25.144 31.7653 25.024 31.2773 24.784C30.7893 24.544 30.4013 24.196 30.1133 23.74C29.8333 23.276 29.6933 22.72 29.6933 22.072C29.6933 21.424 29.8453 20.872 30.1493 20.416C30.4533 19.952 30.8533 19.6 31.3493 19.36C31.8533 19.112 32.4013 18.988 32.9933 18.988C33.4733 18.988 33.8933 19.072 34.2533 19.24C34.6133 19.4 34.9133 19.596 35.1533 19.828L34.5773 20.584C34.3373 20.392 34.0933 20.244 33.8453 20.14C33.6053 20.028 33.3413 19.972 33.0533 19.972C32.6373 19.972 32.2653 20.06 31.9373 20.236C31.6173 20.412 31.3653 20.66 31.1813 20.98C31.0053 21.292 30.9173 21.656 30.9173 22.072C30.9173 22.496 31.0053 22.864 31.1813 23.176C31.3573 23.488 31.6013 23.732 31.9133 23.908C32.2333 24.084 32.6013 24.172 33.0173 24.172C33.3693 24.172 33.6893 24.104 33.9773 23.968C34.2653 23.832 34.5253 23.668 34.7573 23.476L35.2733 24.244C34.9453 24.532 34.5773 24.756 34.1693 24.916C33.7693 25.068 33.3533 25.144 32.9213 25.144ZM37.1526 25V16.492H38.3406V22.036H38.3886L41.2806 19.132H42.6126L38.3406 23.44V25H37.1526ZM41.5926 25L39.4446 22L40.1526 21.244L42.9006 25H41.5926ZM46.8439 25.144C46.2919 25.144 45.7639 25.052 45.2599 24.868C44.7559 24.684 44.3279 24.472 43.9759 24.232L44.5039 23.464C44.8479 23.704 45.2199 23.892 45.6199 24.028C46.0279 24.164 46.4879 24.232 46.9999 24.232C47.4479 24.232 47.7799 24.152 47.9959 23.992C48.2199 23.832 48.3319 23.644 48.3319 23.428C48.3319 23.324 48.3079 23.228 48.2599 23.14C48.2199 23.052 48.1399 22.972 48.0199 22.9C47.9079 22.82 47.7359 22.744 47.5039 22.672C47.2799 22.6 46.9839 22.524 46.6159 22.444C45.8399 22.284 45.2639 22.064 44.8879 21.784C44.5199 21.504 44.3359 21.144 44.3359 20.704C44.3359 20.208 44.5479 19.8 44.9719 19.48C45.4039 19.152 46.0279 18.988 46.8439 18.988C47.3079 18.988 47.7479 19.068 48.1639 19.228C48.5879 19.38 48.9479 19.556 49.2439 19.756L48.6919 20.5C48.4119 20.316 48.1039 20.172 47.7679 20.068C47.4399 19.956 47.0959 19.9 46.7359 19.9C46.4399 19.9 46.2039 19.936 46.0279 20.008C45.8519 20.072 45.7239 20.16 45.6439 20.272C45.5639 20.384 45.5239 20.508 45.5239 20.644C45.5239 20.868 45.6479 21.044 45.8959 21.172C46.1519 21.292 46.5639 21.412 47.1319 21.532C47.7719 21.668 48.2639 21.82 48.6079 21.988C48.9599 22.156 49.1999 22.352 49.3279 22.576C49.4639 22.792 49.5319 23.052 49.5319 23.356C49.5319 23.684 49.4279 23.984 49.2199 24.256C49.0119 24.528 48.7079 24.744 48.3079 24.904C47.9159 25.064 47.4279 25.144 46.8439 25.144ZM55.4312 27.112C54.6152 26.456 53.9672 25.672 53.4872 24.76C53.0152 23.848 52.7792 22.816 52.7792 21.664C52.7792 20.512 53.0152 19.48 53.4872 18.568C53.9672 17.648 54.6152 16.864 55.4312 16.216L56.0912 16.78C55.3072 17.46 54.7312 18.196 54.3632 18.988C53.9952 19.78 53.8112 20.672 53.8112 21.664C53.8112 22.656 53.9952 23.548 54.3632 24.34C54.7312 25.124 55.3072 25.86 56.0912 26.548L55.4312 27.112ZM58.3905 25V24.304C59.2225 23.584 59.9305 22.944 60.5145 22.384C61.0985 21.824 61.5425 21.32 61.8465 20.872C62.1585 20.416 62.3145 19.98 62.3145 19.564C62.3145 19.148 62.1825 18.812 61.9185 18.556C61.6625 18.292 61.2745 18.16 60.7545 18.16C60.4105 18.16 60.0905 18.248 59.7945 18.424C59.5065 18.592 59.2425 18.8 59.0025 19.048L58.3305 18.388C58.6905 18.02 59.0705 17.732 59.4705 17.524C59.8785 17.316 60.3585 17.212 60.9105 17.212C61.4225 17.212 61.8705 17.308 62.2545 17.5C62.6385 17.684 62.9345 17.952 63.1425 18.304C63.3505 18.648 63.4545 19.048 63.4545 19.504C63.4545 19.976 63.3105 20.452 63.0225 20.932C62.7345 21.404 62.3385 21.9 61.8345 22.42C61.3305 22.932 60.7585 23.48 60.1185 24.064C60.3505 24.04 60.5865 24.024 60.8265 24.016C61.0745 24 61.3065 23.992 61.5225 23.992H63.8625V25H58.3905ZM68.3578 25.144C67.7898 25.144 67.2938 24.988 66.8698 24.676C66.4538 24.364 66.1298 23.912 65.8978 23.32C65.6738 22.72 65.5618 21.996 65.5618 21.148C65.5618 19.86 65.8138 18.884 66.3178 18.22C66.8218 17.548 67.5018 17.212 68.3578 17.212C69.2218 17.212 69.9018 17.548 70.3978 18.22C70.9018 18.884 71.1538 19.86 71.1538 21.148C71.1538 21.996 71.0378 22.72 70.8058 23.32C70.5818 23.912 70.2618 24.364 69.8458 24.676C69.4298 24.988 68.9338 25.144 68.3578 25.144ZM68.3578 24.196C68.6858 24.196 68.9778 24.092 69.2338 23.884C69.4898 23.676 69.6898 23.348 69.8338 22.9C69.9858 22.444 70.0618 21.86 70.0618 21.148C70.0618 20.436 69.9858 19.86 69.8338 19.42C69.6898 18.972 69.4898 18.648 69.2338 18.448C68.9778 18.248 68.6858 18.148 68.3578 18.148C68.0298 18.148 67.7378 18.248 67.4818 18.448C67.2258 18.648 67.0218 18.972 66.8698 19.42C66.7258 19.86 66.6538 20.436 66.6538 21.148C66.6538 21.86 66.7258 22.444 66.8698 22.9C67.0218 23.348 67.2258 23.676 67.4818 23.884C67.7378 24.092 68.0298 24.196 68.3578 24.196ZM68.3578 21.916C68.1498 21.916 67.9658 21.844 67.8058 21.7C67.6458 21.548 67.5658 21.344 67.5658 21.088C67.5658 20.824 67.6458 20.62 67.8058 20.476C67.9658 20.332 68.1498 20.26 68.3578 20.26C68.5738 20.26 68.7578 20.332 68.9098 20.476C69.0698 20.62 69.1498 20.824 69.1498 21.088C69.1498 21.344 69.0698 21.548 68.9098 21.7C68.7578 21.844 68.5738 21.916 68.3578 21.916ZM72.7811 25V24.304C73.6131 23.584 74.3211 22.944 74.9051 22.384C75.4891 21.824 75.9331 21.32 76.2371 20.872C76.5491 20.416 76.7051 19.98 76.7051 19.564C76.7051 19.148 76.5731 18.812 76.3091 18.556C76.0531 18.292 75.6651 18.16 75.1451 18.16C74.8011 18.16 74.4811 18.248 74.1851 18.424C73.8971 18.592 73.6331 18.8 73.3931 19.048L72.7211 18.388C73.0811 18.02 73.4611 17.732 73.8611 17.524C74.2691 17.316 74.7491 17.212 75.3011 17.212C75.8131 17.212 76.2611 17.308 76.6451 17.5C77.0291 17.684 77.3251 17.952 77.5331 18.304C77.7411 18.648 77.8451 19.048 77.8451 19.504C77.8451 19.976 77.7011 20.452 77.4131 20.932C77.1251 21.404 76.7291 21.9 76.2251 22.42C75.7211 22.932 75.1491 23.48 74.5091 24.064C74.7411 24.04 74.9771 24.024 75.2171 24.016C75.4651 24 75.6971 23.992 75.9131 23.992H78.2531V25H72.7811ZM82.5684 25.144C82.1284 25.144 81.7324 25.096 81.3804 25C81.0364 24.896 80.7324 24.764 80.4684 24.604C80.2044 24.436 79.9764 24.256 79.7844 24.064L80.3724 23.296C80.6284 23.528 80.9284 23.732 81.2724 23.908C81.6244 24.084 82.0284 24.172 82.4844 24.172C82.8124 24.172 83.1044 24.12 83.3604 24.016C83.6244 23.912 83.8324 23.764 83.9844 23.572C84.1364 23.38 84.2124 23.152 84.2124 22.888C84.2124 22.608 84.1244 22.364 83.9484 22.156C83.7804 21.94 83.5004 21.776 83.1084 21.664C82.7244 21.544 82.2044 21.484 81.5484 21.484V20.596C82.1324 20.596 82.5964 20.54 82.9404 20.428C83.2924 20.308 83.5484 20.152 83.7084 19.96C83.8684 19.76 83.9484 19.532 83.9484 19.276C83.9484 18.932 83.8124 18.66 83.5404 18.46C83.2764 18.26 82.9244 18.16 82.4844 18.16C82.1484 18.16 81.8244 18.232 81.5124 18.376C81.2084 18.512 80.9324 18.692 80.6844 18.916L80.0604 18.172C80.3884 17.884 80.7604 17.652 81.1764 17.476C81.5924 17.3 82.0444 17.212 82.5324 17.212C83.0364 17.212 83.4844 17.292 83.8764 17.452C84.2684 17.604 84.5764 17.828 84.8004 18.124C85.0324 18.412 85.1484 18.768 85.1484 19.192C85.1484 19.632 85.0004 20 84.7044 20.296C84.4084 20.592 84.0244 20.82 83.5524 20.98V21.028C83.8884 21.1 84.1964 21.224 84.4764 21.4C84.7644 21.568 84.9924 21.784 85.1604 22.048C85.3284 22.304 85.4124 22.604 85.4124 22.948C85.4124 23.412 85.2804 23.808 85.0164 24.136C84.7604 24.456 84.4164 24.704 83.9844 24.88C83.5604 25.056 83.0884 25.144 82.5684 25.144ZM88.4798 27.112L87.8198 26.548C88.6038 25.86 89.1798 25.124 89.5478 24.34C89.9158 23.548 90.0998 22.656 90.0998 21.664C90.0998 20.672 89.9158 19.78 89.5478 18.988C89.1798 18.196 88.6038 17.46 87.8198 16.78L88.4798 16.216C89.2958 16.864 89.9398 17.648 90.4118 18.568C90.8918 19.48 91.1318 20.512 91.1318 21.664C91.1318 22.816 90.8918 23.848 90.4118 24.76C89.9398 25.672 89.2958 26.456 88.4798 27.112Z" fill="#A14545"/>
</svg>
